<svg xmlns="http://www.w3.org/2000/svg" width="512" height="498" viewBox="0 0 512 498" role="img" aria-label="Official Kairos logo"><defs><linearGradient id="g" x1="0" y1="0" x2="1" y2="1"><stop offset="0" stop-color="#bff2ff"/><stop offset="0.48" stop-color="#4fd8ff"/><stop offset="1" stop-color="#007bff"/></linearGradient><radialGradient id="bg" cx="35%" cy="25%" r="80%"><stop offset="0" stop-color="#42516d"/><stop offset="0.45" stop-color="#121a2d"/><stop offset="1" stop-color="#050913"/></radialGradient></defs><rect x="6" y="6" width="500" height="486" rx="118" fill="url(#bg)" stroke="#6d7da0" stroke-opacity=".65" stroke-width="10"/><rect x="24" y="20" width="464" height="444" rx="98" fill="none" stroke="#d7f7ff" stroke-opacity=".16" stroke-width="7"/><path d="M257 150a107 107 0 1 0 99 148" fill="none" stroke="url(#g)" stroke-width="29" stroke-linecap="round"/><path d="M229 205v137" stroke="url(#g)" stroke-width="31" stroke-linecap="square"/><path d="M330 202l-80 79 86 84" fill="none" stroke="url(#g)" stroke-width="34" stroke-linecap="square" stroke-linejoin="miter"/><circle cx="368" cy="156" r="23" fill="#62dfff"/><path d="M75 74c72-26 224-36 316-24-46 58-83 125-118 195-78 13-158 24-238 30 2-70 14-141 40-201z" fill="#ffffff" opacity=".18"/><path d="M22 236c136 32 287 23 468-26" stroke="#ffffff" stroke-opacity=".08" stroke-width="18" fill="none"/><rect x="13" y="13" width="486" height="472" rx="112" fill="none" stroke="#ffffff" stroke-opacity=".18" stroke-width="4"/></svg>